<?xml version="1.0" encoding="UTF-8" standalone="no"?>
<svg
   xmlns:dc="http://purl.org/dc/elements/1.1/"
   xmlns:cc="http://creativecommons.org/ns#"
   xmlns:rdf="http://www.w3.org/1999/02/22-rdf-syntax-ns#"
   xmlns:svg="http://www.w3.org/2000/svg"
   xmlns="http://www.w3.org/2000/svg"
   xmlns:sodipodi="http://sodipodi.sourceforge.net/DTD/sodipodi-0.dtd"
   xmlns:inkscape="http://www.inkscape.org/namespaces/inkscape"
   viewBox="0 0 19 19"
   width="19"
   height="19"
   version="1.1"
   id="svg3951"
   sodipodi:docname="instagram.svg"
   style="fill:#ffffff"
   inkscape:version="0.92.5 (2060ec1f9f, 2020-04-08)">
  <metadata
     id="metadata3957">
    <rdf:RDF>
      <cc:Work
         rdf:about="">
        <dc:format>image/svg+xml</dc:format>
        <dc:type
           rdf:resource="http://purl.org/dc/dcmitype/StillImage" />
        <dc:title></dc:title>
      </cc:Work>
    </rdf:RDF>
  </metadata>
  <defs
     id="defs3955" />
  <sodipodi:namedview
     pagecolor="#ffffff"
     bordercolor="#666666"
     borderopacity="1"
     objecttolerance="10"
     gridtolerance="10"
     guidetolerance="10"
     inkscape:pageopacity="0"
     inkscape:pageshadow="2"
     inkscape:window-width="1920"
     inkscape:window-height="1015"
     id="namedview3953"
     showgrid="false"
     inkscape:zoom="19.666667"
     inkscape:cx="0.35546265"
     inkscape:cy="16.888902"
     inkscape:window-x="0"
     inkscape:window-y="36"
     inkscape:window-maximized="1"
     inkscape:current-layer="svg3951" />
  <path
     d="m 5.5084745,0.49152541 c -2.757,0 -4.99999993,2.24299999 -4.99999993,4.99999999 v 8.0000006 c 0,2.757 2.24299993,5 4.99999993,5 h 8.0000005 c 2.757,0 5,-2.243 5,-5 V 5.4915254 c 0,-2.757 -2.243,-4.99999999 -5,-4.99999999 z m 0,1.99999999 h 8.0000005 c 1.654,0 3,1.346 3,3 v 8.0000006 c 0,1.654 -1.346,3 -3,3 H 5.5084745 c -1.654,0 -3,-1.346 -3,-3 V 5.4915254 c 0,-1.654 1.346,-3 3,-3 z m 9.0000005,1 a 1,1 0 0 0 -1,1 1,1 0 0 0 1,1 1,1 0 0 0 1,-1 1,1 0 0 0 -1,-1 z m -5.0000005,1 c -2.757,0 -5,2.243 -5,5.0000003 0,2.7570003 2.243,5.0000003 5,5.0000003 2.7570005,0 5.0000005,-2.243 5.0000005,-5.0000003 0,-2.7570003 -2.243,-5.0000003 -5.0000005,-5.0000003 z m 0,2 c 1.6540005,0 3.0000005,1.3460003 3.0000005,3.0000003 0,1.6540003 -1.346,3.0000003 -3.0000005,3.0000003 -1.654,0 -3,-1.346 -3,-3.0000003 0,-1.654 1.346,-3.0000003 3,-3.0000003 z"
     id="path3949"
     inkscape:connector-curvature="0" />
</svg>
